<svg width="41" height="41" viewBox="0 0 41 41" fill="none" xmlns="http://www.w3.org/2000/svg">
<path d="M20.5376 3.33297e-05C26.0155 0.00987002 30.9891 2.16849 34.661 5.67762L37.6133 2.72537C38.8631 1.47562 41 2.36076 41 4.12822V15.2097C41 16.3054 40.1118 17.1936 39.0161 17.1936H27.9346C26.1672 17.1936 25.282 15.0567 26.5318 13.8069L29.9829 10.3557C27.4316 7.96692 24.1304 6.64368 20.6232 6.61343C12.9854 6.54746 6.54735 12.7285 6.6134 20.6197C6.67606 28.1056 12.745 34.3871 20.5 34.3871C23.8996 34.3871 27.1127 33.1738 29.6447 30.952C30.0368 30.6081 30.6289 30.629 30.9977 30.9977L34.2762 34.2763C34.679 34.679 34.6591 35.3356 34.2364 35.7173C30.6014 39.0007 25.7842 41 20.5 41C9.17821 41 8.26619e-05 31.8219 5.55282e-10 20.5002C-8.26607e-05 9.19138 9.2288 -0.0202187 20.5376 3.33297e-05Z" fill="#87E43A"/>
</svg>
