<svg width="615" height="419" viewBox="0 0 615 419" fill="none" xmlns="http://www.w3.org/2000/svg">
<path opacity="0.1" fill-rule="evenodd" clip-rule="evenodd" d="M10.9426 92.9103C25.5328 78.3632 49.1882 78.3632 63.7784 92.9103L169 197.821L274.222 92.9103C288.812 78.3632 312.467 78.3632 327.057 92.9103C341.648 107.457 341.648 131.043 327.057 145.59L221.836 250.5L327.057 355.41C341.648 369.957 341.648 393.543 327.057 408.09C312.467 422.637 288.812 422.637 274.222 408.09L169 303.179L63.7784 408.09C49.1882 422.637 25.5328 422.637 10.9426 408.09C-3.64755 393.543 -3.64755 369.957 10.9426 355.41L116.164 250.5L10.9426 145.59C-3.64755 131.043 -3.64755 107.457 10.9426 92.9103Z" fill="black"/>
<path opacity="0.1" fill-rule="evenodd" clip-rule="evenodd" d="M445.5 74.6789C393.132 74.6789 350.679 117.132 350.679 169.5C350.679 221.868 393.132 264.321 445.5 264.321C497.868 264.321 540.321 221.868 540.321 169.5C540.321 117.132 497.868 74.6789 445.5 74.6789ZM276 169.5C276 75.8877 351.888 0 445.5 0C539.112 0 615 75.8877 615 169.5C615 263.112 539.112 339 445.5 339C351.888 339 276 263.112 276 169.5Z" fill="black"/>
</svg>
